HIERARCHY
ROOT joint_Root
{
	OFFSET 0.0 0.0 0.0
	CHANNELS 6 Xposition Yposition Zposition Zrotation Xrotation Yrotation 
	JOINT Hips
	{
		OFFSET -0.726466 93.3139 -2.00062
		CHANNELS 6 Xposition Yposition Zposition Zrotation Xrotation Yrotation 
		JOINT Spine
		{
			OFFSET 15.7357 0.0 0.0
			CHANNELS 6 Xposition Yposition Zposition Zrotation Xrotation Yrotation 
			JOINT Chest
			{
				OFFSET 8.98455 -0.406207 0.0
				CHANNELS 6 Xposition Yposition Zposition Zrotation Xrotation Yrotation 
				JOINT Neck
				{
					OFFSET 16.3773 0.0 0.0
					CHANNELS 6 Xposition Yposition Zposition Zrotation Xrotation Yrotation 
					JOINT Head
					{
						OFFSET 6.45672 0.0 0.0
						CHANNELS 6 Xposition Yposition Zposition Zrotation Xrotation Yrotation 
						End Site
						{
							OFFSET 0.0 0.0 0.0
						}
					}
				}
				JOINT Shoulder_L
				{
					OFFSET 12.9942 -0.242716 4.98039
					CHANNELS 6 Xposition Yposition Zposition Zrotation Xrotation Yrotation 
					JOINT UpperArm_L
					{
						OFFSET 5.34809 0.0 0.0
						CHANNELS 6 Xposition Yposition Zposition Zrotation Xrotation Yrotation 
						JOINT LowerArm_L
						{
							OFFSET 24.3286 1.87007e-05 0.0
							CHANNELS 6 Xposition Yposition Zposition Zrotation Xrotation Yrotation 
							JOINT Hand_L
							{
								OFFSET 22.2916 0.0 0.0
								CHANNELS 6 Xposition Yposition Zposition Zrotation Xrotation Yrotation 
								End Site
								{
									OFFSET 0.0 0.0 0.0
								}
							}
						}
					}
				}
				JOINT Shoulder_R
				{
					OFFSET 12.9945 -0.242716 -4.98039
					CHANNELS 6 Xposition Yposition Zposition Zrotation Xrotation Yrotation 
					JOINT UpperArm_R
					{
						OFFSET -5.34813 0.0 0.0
						CHANNELS 6 Xposition Yposition Zposition Zrotation Xrotation Yrotation 
						JOINT LowerArm_R
						{
							OFFSET -24.3289 0.000322201 0.0
							CHANNELS 6 Xposition Yposition Zposition Zrotation Xrotation Yrotation 
							JOINT Hand_R
							{
								OFFSET -22.2915 -0.000108084 0.0
								CHANNELS 6 Xposition Yposition Zposition Zrotation Xrotation Yrotation 
								End Site
								{
									OFFSET 0.0 0.0 0.0
								}
							}
						}
					}
				}
			}
		}
		JOINT UpperLeg_L
		{
			OFFSET -2.19248 -6.46944 0.0
			CHANNELS 6 Xposition Yposition Zposition Zrotation Xrotation Yrotation 
			JOINT LowerLeg_L
			{
				OFFSET 39.0811 0.0 -1.23785e-05
				CHANNELS 6 Xposition Yposition Zposition Zrotation Xrotation Yrotation 
				JOINT Foot_L
				{
					OFFSET 40.9854 0.0 -1.26872e-05
					CHANNELS 6 Xposition Yposition Zposition Zrotation Xrotation Yrotation 
					JOINT Toes_L
					{
						OFFSET 11.7543 0.0 0.0
						CHANNELS 6 Xposition Yposition Zposition Zrotation Xrotation Yrotation 
						End Site
						{
							OFFSET 0.0 0.0 0.0
						}
					}
				}
			}
		}
		JOINT UpperLeg_R
		{
			OFFSET -2.19251 6.46944 0.0
			CHANNELS 6 Xposition Yposition Zposition Zrotation Xrotation Yrotation 
			JOINT LowerLeg_R
			{
				OFFSET -39.0811 -0.00228153 -0.0401928
				CHANNELS 6 Xposition Yposition Zposition Zrotation Xrotation Yrotation 
				JOINT Foot_R
				{
					OFFSET -40.9854 0.0 0.0
					CHANNELS 6 Xposition Yposition Zposition Zrotation Xrotation Yrotation 
					JOINT Toes_R
					{
						OFFSET -11.7543 0.0 0.0
						CHANNELS 6 Xposition Yposition Zposition Zrotation Xrotation Yrotation 
						End Site
						{
							OFFSET 0.0 0.0 0.0
						}
					}
				}
			}
		}
	}
}
MOTION
Frames:	6
Frame Time:	0.0333333
0.000000 0.000000 0.000000 0.000000 0.000000 -0.000000 -0.670976 92.402700 0.251558 88.003600 -0.337299 2.471940 15.735700 0.000005 -0.000001 87.865800 85.812700 -87.404000 8.984550 -0.406207 -0.000000 0.604353 -0.340625 0.924791 16.377300 -0.000001 -0.000001 3.919960 -2.579460 0.579701 6.456720 -0.000001 -0.000000 0.627855 -1.740740 -0.717440 12.994200 -0.242716 4.980390 -89.954800 -0.139233 -72.020900 5.348090 -0.000007 -0.000001 -68.567600 38.996700 -12.581000 24.328600 0.000019 0.000005 0.450724 1.026390 -23.707400 22.291600 -0.000001 0.000005 5.536380 5.487130 -6.023540 12.994500 -0.242716 -4.980390 87.688600 6.673300 -70.846200 -5.348130 -0.000001 -0.000004 -67.567300 36.425400 -14.279900 -24.328900 0.000322 -0.000009 2.452990 7.275550 -18.696200 -22.291500 -0.000108 -0.000004 5.738950 5.303430 -0.023252 -2.192480 -6.469440 -0.000000 -175.737000 -5.212880 -3.007490 39.081100 -0.000007 -0.000012 -0.105949 0.267207 21.628700 40.985400 -0.000006 -0.000013 -0.417913 2.587890 -66.404600 11.754300 -0.000000 0.000003 -0.000050 -0.000562 -16.599400 -2.192510 6.469440 -0.000001 -179.766000 12.194200 179.284000 -39.081100 -0.002282 -0.040193 -0.001684 0.015112 18.335300 -40.985400 0.000008 0.000006 4.051230 5.696050 -65.758400 -11.754300 -0.000006 -0.000006 -0.008162 -0.089349 -20.211600
0.000000 0.000000 0.000000 0.000000 0.000000 -0.000000 -0.685138 92.409500 0.236001 88.024200 -0.276965 2.497360 15.735700 0.000005 -0.000001 87.212800 85.794400 -86.793100 8.984550 -0.406207 -0.000000 0.637011 -0.434976 0.841272 16.377300 -0.000001 -0.000001 3.853540 -2.544600 0.520771 6.456720 -0.000001 -0.000000 0.542790 -1.716410 -0.865130 12.994200 -0.242716 4.980390 -89.923100 -0.237089 -72.024500 5.348090 -0.000007 -0.000001 -68.520500 39.045500 -12.730500 24.328600 0.000019 0.000005 0.433227 0.990165 -23.630100 22.291600 -0.000001 0.000005 5.636310 5.491810 -6.207120 12.994500 -0.242716 -4.980390 87.664800 6.694870 -70.720400 -5.348130 -0.000001 -0.000004 -67.195600 35.576700 -14.460100 -24.328900 0.000322 -0.000009 2.987260 8.013410 -20.528100 -22.291500 -0.000108 -0.000004 4.919530 5.290590 0.335265 -2.192480 -6.469440 -0.000000 -175.755000 -5.113820 -2.974420 39.081100 -0.000007 -0.000012 -0.106535 0.269459 21.572100 40.985400 -0.000006 -0.000013 -0.437256 2.543520 -66.360000 11.754300 -0.000000 0.000003 -0.000054 -0.000602 -16.600900 -2.192510 6.469440 -0.000001 -179.794000 12.337000 179.324000 -39.081100 -0.002282 -0.040193 -0.001980 0.016048 18.290300 -40.985400 0.000008 0.000006 3.990680 5.774390 -65.721200 -11.754300 -0.000006 -0.000006 -0.008004 -0.088067 -20.159200
0.000000 0.000000 0.000000 0.000000 0.000000 -0.000000 -0.685354 92.408900 0.219505 88.005700 -0.293314 2.569100 15.735700 0.000005 -0.000001 86.598700 85.773500 -86.223600 8.984550 -0.406207 -0.000000 0.674011 -0.524552 0.752781 16.377300 -0.000001 -0.000001 3.825500 -2.452400 0.442753 6.456720 -0.000001 -0.000000 0.398187 -1.553310 -1.008580 12.994200 -0.242716 4.980390 -89.914300 -0.263636 -71.983700 5.348090 -0.000007 -0.000001 -68.469700 38.866700 -12.748900 24.328600 0.000019 0.000005 0.426142 0.969060 -23.736500 22.291600 -0.000001 0.000005 5.591630 5.490250 -6.145570 12.994500 -0.242716 -4.980390 87.620700 6.743480 -70.514000 -5.348130 -0.000001 -0.000004 -66.611400 33.728700 -14.707400 -24.328900 0.000322 -0.000009 3.444770 7.846210 -23.804200 -22.291500 -0.000108 -0.000004 4.874050 5.283740 0.523975 -2.192480 -6.469440 -0.000000 -175.724000 -5.128660 -2.914170 39.081100 -0.000007 -0.000012 -0.105579 0.266763 21.592500 40.985400 -0.000006 -0.000013 -0.434333 2.573710 -66.367700 11.754300 -0.000000 0.000003 -0.000056 -0.000622 -16.601700 -2.192510 6.469440 -0.000001 -179.778000 12.376100 179.370000 -39.081100 -0.002282 -0.040193 0.000304 0.009122 18.321700 -40.985400 0.000008 0.000006 4.137260 5.775280 -65.745400 -11.754300 -0.000006 -0.000006 -0.008112 -0.088944 -20.195100
0.000000 0.000000 0.000000 0.000000 0.000000 -0.000000 -0.662823 92.413700 0.178642 88.023700 -0.390865 2.614600 15.735700 0.000005 -0.000001 86.202400 85.765400 -85.904400 8.984550 -0.406207 -0.000000 0.686227 -0.579144 0.598866 16.377300 -0.000001 -0.000001 3.758460 -2.332240 0.335596 6.456720 -0.000001 -0.000000 0.318292 -1.299980 -1.078330 12.994200 -0.242716 4.980390 -89.903400 -0.296532 -71.945700 5.348090 -0.000007 -0.000001 -68.430800 38.625000 -12.789000 24.328600 0.000019 0.000005 0.439232 0.998665 -23.740100 22.291600 -0.000001 0.000005 5.596040 5.491350 -6.188690 12.994500 -0.242716 -4.980390 87.540300 6.850180 -70.193300 -5.348130 -0.000001 -0.000004 -65.547600 31.208200 -15.409200 -24.328900 0.000322 -0.000009 3.350040 6.232300 -28.349000 -22.291500 -0.000108 -0.000004 5.418680 5.291770 0.302387 -2.192480 -6.469440 -0.000000 -175.747000 -5.303790 -2.877780 39.081100 -0.000007 -0.000012 -0.105744 0.267439 21.573600 40.985400 -0.000006 -0.000013 -0.408203 2.604950 -66.331800 11.754300 -0.000000 0.000003 -0.000062 -0.000679 -16.603800 -2.192510 6.469440 -0.000001 -179.811000 12.317000 179.365000 -39.081100 -0.002282 -0.040193 0.001899 0.004297 18.355200 -40.985400 0.000008 0.000006 4.201780 5.835380 -65.738000 -11.754300 -0.000006 -0.000006 -0.008156 -0.089302 -20.209700
0.000000 0.000000 0.000000 0.000000 0.000000 -0.000000 -0.637385 92.411900 0.123982 87.987400 -0.549256 2.617440 15.735700 0.000005 -0.000001 85.573500 85.780600 -85.331100 8.984550 -0.406207 -0.000000 0.649081 -0.666134 0.488137 16.377300 -0.000001 -0.000001 3.787690 -2.175000 0.218971 6.456720 -0.000001 -0.000000 0.142389 -0.996714 -1.285700 12.994200 -0.242716 4.980390 -89.910800 -0.272199 -71.848200 5.348090 -0.000007 -0.000001 -68.302700 38.542600 -12.844900 24.328600 0.000019 0.000005 0.422280 0.960078 -23.740900 22.291600 -0.000001 0.000005 5.673950 5.490260 -6.146000 12.994500 -0.242716 -4.980390 87.495000 6.836860 -69.821500 -5.348130 -0.000001 -0.000004 -64.136700 28.359700 -16.916300 -24.328900 0.000322 -0.000009 2.889940 4.327370 -33.801300 -22.291500 -0.000108 -0.000004 6.746620 5.282300 0.562917 -2.192480 -6.469440 -0.000000 -175.739000 -5.379110 -2.932520 39.081100 -0.000007 -0.000012 -0.105135 0.264829 21.652800 40.985400 -0.000006 -0.000013 -0.398028 2.523360 -66.345400 11.754300 -0.000000 0.000003 -0.000055 -0.000616 -16.601400 -2.192510 6.469440 -0.000001 -179.795000 12.233200 179.294000 -39.081100 -0.002282 -0.040193 0.000460 0.008614 18.390900 -40.985400 0.000008 0.000006 4.120580 5.914810 -65.687900 -11.754300 -0.000006 -0.000006 -0.008111 -0.088935 -20.194700
0.000000 0.000000 0.000000 0.000000 0.000000 -0.000000 -0.590581 92.418300 0.084464 87.976700 -0.808685 2.649430 15.735700 0.000005 -0.000001 85.228500 85.800700 -85.053900 8.984550 -0.406207 -0.000000 0.604555 -0.709285 0.352691 16.377300 -0.000001 -0.000001 3.841990 -2.049770 0.124335 6.456720 -0.000001 -0.000000 -0.016889 -0.728977 -1.663550 12.994200 -0.242716 4.980390 -89.920700 -0.240824 -71.776800 5.348090 -0.000007 -0.000001 -68.253400 38.344100 -12.819400 24.328600 0.000019 0.000005 0.462065 1.051550 -23.720900 22.291600 -0.000001 0.000005 5.611280 5.487890 -6.053400 12.994500 -0.242716 -4.980390 87.477200 6.757940 -69.472900 -5.348130 -0.000001 -0.000004 -62.503900 25.060400 -19.143300 -24.328900 0.000322 -0.000009 3.144440 3.731810 -40.172400 -22.291500 -0.000108 -0.000004 8.357110 5.272010 0.842145 -2.192480 -6.469440 -0.000000 -175.777000 -5.357750 -2.866180 39.081100 -0.000007 -0.000012 -0.104362 0.263349 21.617900 40.985400 -0.000006 -0.000013 -0.413931 2.282230 -66.334900 11.754300 -0.000000 0.000003 -0.000055 -0.000617 -16.601500 -2.192510 6.469440 -0.000001 -179.819000 12.120800 179.288000 -39.081100 -0.002282 -0.040193 0.001471 0.005572 18.394700 -40.985400 0.000008 0.000006 4.207290 6.054630 -65.664900 -11.754300 -0.000006 -0.000006 -0.008100 -0.088843 -20.190900
